# Blender 4.4.3
# www.blender.org
mtllib hammer_amarillo.mtl
o JOBJ_0_DOBJ_0_POBJ_0
v -1.234375 14.210938 -4.531251
v -1.675781 13.765625 -3.949220
v -1.750000 14.542969 -3.335939
v -1.312500 15.054688 -3.871095
v -0.871094 13.265625 -4.902345
v -1.343750 12.894531 -4.289063
v -0.281250 12.367188 -4.921876
v -0.796875 12.066406 -4.308595
v 0.449219 11.648438 -4.589845
v -0.125000 11.402344 -4.003907
v 1.207031 11.222656 -3.957032
v 0.574219 11.007813 -3.417970
v 1.875000 11.152344 -3.117189
v 1.191406 10.941406 -2.644532
v 2.355469 11.445313 -2.203126
v 1.636719 11.214844 -1.800782
v 2.574219 12.062500 -1.347657
v 1.835938 11.781250 -1.011720
v 2.496094 12.906250 -0.683595
v 1.765625 12.562500 -0.398439
v -1.546875 15.113281 -2.546876
v -1.093750 15.671875 -3.015626
v -1.105469 15.382813 -1.703126
v -0.613281 15.964844 -2.097657
v -0.484375 15.316406 -0.929689
v 0.054688 15.894531 -1.257813
v 0.210938 14.921875 -0.343751
v 0.812500 15.464844 -0.625001
v 0.886719 14.261719 -0.039063
v 1.542969 14.750000 -0.292970
v 1.429688 13.429688 -0.058595
v 2.132812 13.847656 -0.312501
v -4.210938 13.015625 1.902343
v -3.578125 13.230469 1.363280
v -4.199219 13.296875 0.589843
v -4.878906 13.089844 1.062499
v -3.453125 12.589844 2.535155
v -2.878906 12.835938 1.949218
v -2.722656 11.871094 2.867187
v -2.207031 12.175781 2.253905
v -2.132812 10.972656 2.847655
v -1.660156 11.343750 2.234374
v -1.769531 10.027344 2.476561
v -1.328125 10.476563 1.894530
v -1.691406 9.183594 1.812499
v -1.257812 9.695312 1.281249
v -1.910156 8.566406 0.957030
v -1.457031 9.128906 0.492187
v -2.390625 8.273438 0.042968
v -1.898438 8.855469 -0.351563
v -3.058594 8.343750 -0.796876
v -2.519531 8.921875 -1.128907
v -3.816406 8.773438 -1.429689
v -3.218750 9.316406 -1.710939
v -4.546875 9.492188 -1.761720
v -3.890625 9.980469 -2.015626
v -5.136719 10.390625 -1.742189
v -4.433594 10.808594 -2.000001
v -5.500000 11.332031 -1.371095
v -4.769531 11.679688 -1.656251
v -5.578125 12.175781 -0.707032
v -4.839844 12.457031 -1.046876
v -5.359375 12.792969 0.144530
v -4.640625 13.027344 -0.257813
v -6.347656 9.539062 -0.675782
v -6.289062 9.617188 -0.890626
v -5.785156 8.683594 -0.695313
v -5.695312 8.714844 -0.910157
v 1.046875 13.292969 -5.757813
v 0.867188 13.144531 -5.773439
v 0.484375 14.148438 -5.738282
v 0.277344 14.042969 -5.753907
v -6.691406 10.437500 -0.324220
v -6.648438 10.558594 -0.519532
v 0.140625 15.042969 -5.386720
v -0.085938 14.984375 -5.382813
v -6.765625 11.238281 0.304687
v -6.726562 11.402344 0.140624
v 0.066406 15.843750 -4.757813
v -0.164062 15.828125 -4.718751
v -6.558594 11.824219 1.117187
v -6.511719 12.019531 0.996093
v 0.273438 16.429688 -3.945313
v 0.054688 16.445312 -3.867189
v -6.101562 12.101563 1.988280
v -6.031250 12.312500 1.914061
v 0.730469 16.710938 -3.074220
v 0.535156 16.742188 -2.949220
v -5.464844 12.035156 2.785155
v -5.359375 12.242188 2.753905
v 1.367188 16.640625 -2.277345
v 1.203125 16.667969 -2.109376
v -4.746094 11.628906 3.386718
v -4.601562 11.816406 3.386718
v 2.085938 16.234375 -1.675782
v 1.960938 16.242188 -1.476563
v -4.050781 10.945313 3.703124
v -3.871094 11.097656 3.718749
v 2.781250 15.554688 -1.359376
v 2.691406 15.523438 -1.144532
v -3.488281 10.093750 3.683593
v -3.281250 10.199219 3.699218
v 3.343750 14.699219 -1.378907
v 3.281250 14.625000 -1.164063
v -3.144531 9.195312 3.332030
v -2.917969 9.253906 3.328124
v 3.687500 13.804688 -1.730470
v 3.644531 13.679688 -1.535157
v -3.070312 8.394531 2.699218
v -2.839844 8.410156 2.664061
v 3.761719 13.000000 -2.359376
v 3.722656 12.835938 -2.199220
v -3.277344 7.808594 1.890624
v -3.058594 7.792969 1.808593
v 3.554688 12.417969 -3.171876
v 3.503906 12.218750 -3.054689
v -3.734375 7.527344 1.019530
v -3.539062 7.500000 0.894530
v 3.097656 12.136719 -4.042970
v 3.023438 11.925781 -3.968751
v -4.371094 7.597656 0.218749
v -4.207031 7.570312 0.054687
v 2.460938 12.203125 -4.839845
v 2.355469 11.996094 -4.808595
v -5.089844 8.003906 -0.382813
v -4.964844 8.000000 -0.578126
v 1.742188 12.609375 -5.441407
v 1.597656 12.425781 -5.441407
vn -0.7594 0.1735 -0.6271
vn -0.7598 0.1758 -0.6259
vn -0.7878 0.4788 -0.3874
vn -0.7876 0.4780 -0.3889
vn -0.6287 -0.1655 -0.7598
vn -0.6298 -0.1638 -0.7593
vn -0.4162 -0.4891 -0.7666
vn -0.4178 -0.4872 -0.7669
vn -0.1540 -0.7465 -0.6473
vn -0.1557 -0.7452 -0.6484
vn 0.1195 -0.9007 -0.4177
vn 0.1180 -0.8996 -0.4205
vn 0.3600 -0.9256 -0.1172
vn 0.3590 -0.9257 -0.1190
vn 0.5320 -0.8196 0.2126
vn 0.5316 -0.8202 0.2114
vn 0.6102 -0.5980 0.5197
vn 0.6101 -0.5995 0.5181
vn 0.5819 -0.2942 0.7581
vn 0.5818 -0.2958 0.7576
vn -0.7087 0.7011 -0.0791
vn -0.7092 0.7003 -0.0812
vn -0.5351 0.8067 0.2508
vn -0.5378 0.8056 0.2485
vn -0.2960 0.7795 0.5521
vn -0.2974 0.7798 0.5509
vn -0.0228 0.6259 0.7796
vn -0.0241 0.6269 0.7787
vn 0.2400 0.3672 0.8987
vn 0.2378 0.3688 0.8986
vn 0.4516 0.0435 0.8912
vn 0.4506 0.0454 0.8916
vn -0.1170 0.8999 0.4202
vn -0.1186 0.9002 0.4190
vn -0.3587 0.9260 0.1178
vn -0.3587 0.9259 0.1187
vn 0.1550 0.7459 0.6477
vn 0.1533 0.7469 0.6471
vn 0.4172 0.4873 0.7671
vn 0.4161 0.4887 0.7668
vn 0.6298 0.1637 0.7593
vn 0.6292 0.1649 0.7595
vn 0.7600 -0.1761 0.6257
vn 0.7600 -0.1739 0.6263
vn 0.7882 -0.4791 0.3862
vn 0.7885 -0.4777 0.3874
vn 0.7095 -0.7004 0.0784
vn 0.7103 -0.6992 0.0813
vn 0.5364 -0.8063 -0.2492
vn 0.5379 -0.8059 -0.2475
vn 0.2948 -0.7800 -0.5521
vn 0.2961 -0.7799 -0.5514
vn 0.0219 -0.6256 -0.7798
vn 0.0232 -0.6262 -0.7793
vn -0.2395 -0.3673 -0.8988
vn -0.2386 -0.3689 -0.8983
vn -0.4522 -0.0440 -0.8908
vn -0.4515 -0.0464 -0.8911
vn -0.5828 0.2956 -0.7570
vn -0.5828 0.2938 -0.7577
vn -0.6106 0.5983 -0.5188
vn -0.6115 0.5963 -0.5201
vn -0.5326 0.8195 -0.2116
vn -0.5330 0.8189 -0.2128
vn -0.8901 -0.4456 0.0962
vn -0.7066 -0.3017 -0.6400
vn -0.7970 -0.5983 0.0823
vn -0.4903 -0.6053 -0.6272
vn 0.4987 0.2066 -0.8418
vn -0.1350 -0.2148 -0.9673
vn 0.3978 0.3512 -0.8476
vn -0.3276 0.1020 -0.9393
vn -0.9427 -0.2907 0.1636
vn -0.8460 0.0260 -0.5325
vn 0.3297 0.5066 -0.7966
vn -0.4391 0.4244 -0.7919
vn -0.9468 -0.1583 0.2801
vn -0.8890 0.3263 -0.3212
vn 0.2072 0.6697 -0.7132
vn -0.4477 0.7049 -0.5501
vn -0.9283 0.1628 0.3344
vn -0.8324 0.5532 -0.0324
vn 0.1042 0.8428 -0.5280
vn -0.3534 0.9013 -0.2507
vn -0.8184 0.0714 0.5702
vn -0.6820 0.6732 0.2859
vn 0.4117 0.8141 -0.4095
vn -0.1738 0.9826 0.0648
vn -0.7041 -0.0510 0.7083
vn -0.4596 0.6704 0.5825
vn 0.5179 0.8125 -0.2677
vn 0.0659 0.9365 0.3446
vn -0.5796 -0.1289 0.8047
vn -0.2004 0.5432 0.8153
vn 0.6394 0.7520 -0.1601
vn 0.3267 0.7710 0.5467
vn -0.4619 -0.2530 0.8501
vn 0.0565 0.3111 0.9487
vn 0.7602 0.6430 -0.0932
vn 0.5702 0.5078 0.6457
vn -0.3699 -0.4040 0.8366
vn 0.2705 0.0083 0.9627
vn 0.8630 0.4983 -0.0827
vn 0.7618 0.1906 0.6192
vn -0.3180 -0.5577 0.7667
vn 0.4117 -0.3181 0.8540
vn 0.9303 0.3416 -0.1333
vn 0.8711 -0.1332 0.4727
vn -0.3150 -0.6897 0.6520
vn 0.4541 -0.6194 0.6404
vn 0.9779 0.1295 -0.1641
vn 0.8807 -0.4144 0.2294
vn -0.1296 -0.8818 0.4535
vn 0.3967 -0.8469 0.3540
vn 0.9573 -0.1300 -0.2582
vn 0.7895 -0.6093 -0.0739
vn -0.3695 -0.8759 0.3101
vn 0.2472 -0.9683 0.0366
vn 0.8501 0.0321 -0.5256
vn 0.6115 -0.6896 -0.3878
vn -0.5575 -0.7993 0.2243
vn 0.0223 -0.9656 -0.2589
vn 0.7446 0.0352 -0.6665
vn 0.3738 -0.6416 -0.6698
vn -0.6796 -0.7227 0.1261
vn -0.2358 -0.8372 -0.4934
vn 0.6210 0.0958 -0.7779
vn 0.1100 -0.4757 -0.8727
vt 3.500000 0.187500
vt 3.500000 0.273438
vt 3.250000 0.273438
vt 3.250000 0.187500
vt 3.750000 0.187500
vt 3.750000 0.273438
vt 4.000000 0.187500
vt 4.000000 0.273438
vt 0.250000 0.187500
vt 0.250000 0.273438
vt 0.000000 0.273438
vt 0.000000 0.187500
vt 0.500000 0.187500
vt 0.500000 0.273438
vt 0.750000 0.187500
vt 0.750000 0.273438
vt 1.000000 0.187500
vt 1.000000 0.273438
vt 1.250000 0.187500
vt 1.250000 0.273438
vt 1.500000 0.187500
vt 1.500000 0.273438
vt 3.000000 0.273438
vt 3.000000 0.187500
vt 2.750000 0.273438
vt 2.750000 0.187500
vt 2.500000 0.273438
vt 2.500000 0.187500
vt 2.250000 0.273438
vt 2.250000 0.187500
vt 2.000000 0.273438
vt 2.000000 0.187500
vt 1.750000 0.273438
vt 1.750000 0.187500
vt 2.500000 0.812500
vt 2.500000 0.726562
vt 2.750000 0.726562
vt 2.750000 0.812500
vt 2.250000 0.812500
vt 2.250000 0.726562
vt 2.000000 0.812500
vt 2.000000 0.726562
vt 1.750000 0.812500
vt 1.750000 0.726562
vt 1.500000 0.812500
vt 1.500000 0.726562
vt 1.250000 0.812500
vt 1.250000 0.726562
vt 1.000000 0.812500
vt 1.000000 0.726562
vt 0.750000 0.812500
vt 0.750000 0.726562
vt 0.500000 0.812500
vt 0.500000 0.726562
vt 0.250000 0.812500
vt 0.250000 0.726562
vt 0.000000 0.812500
vt 0.000000 0.726562
vt 4.000000 0.726562
vt 4.000000 0.812500
vt 3.750000 0.812500
vt 3.750000 0.726562
vt 3.500000 0.812500
vt 3.500000 0.726562
vt 3.250000 0.812500
vt 3.250000 0.726562
vt 3.000000 0.812500
vt 3.000000 0.726562
vt 3.750000 1.000000
vt 3.750000 0.980469
vt 4.000000 1.000000
vt 4.000000 0.980469
vt 4.000000 0.000000
vt 4.000000 0.019531
vt 3.750000 0.000000
vt 3.750000 0.019531
vt 3.500000 1.000000
vt 3.500000 0.980469
vt 3.500000 0.000000
vt 3.500000 0.019531
vt 3.250000 1.000000
vt 3.250000 0.980469
vt 3.250000 0.000000
vt 3.250000 0.019531
vt 3.000000 1.000000
vt 3.000000 0.980469
vt 3.000000 0.000000
vt 3.000000 0.019531
vt 2.750000 1.000000
vt 2.750000 0.980469
vt 2.750000 0.000000
vt 2.750000 0.019531
vt 2.500000 1.000000
vt 2.500000 0.980469
vt 2.500000 0.000000
vt 2.500000 0.019531
vt 2.250000 1.000000
vt 2.250000 0.980469
vt 2.250000 0.000000
vt 2.250000 0.019531
vt 2.000000 1.000000
vt 2.000000 0.980469
vt 2.000000 0.000000
vt 2.000000 0.019531
vt 1.750000 1.000000
vt 1.750000 0.980469
vt 1.750000 0.000000
vt 1.750000 0.019531
vt 1.500000 1.000000
vt 1.500000 0.980469
vt 1.500000 0.000000
vt 1.500000 0.019531
vt 1.250000 1.000000
vt 1.250000 0.980469
vt 1.250000 0.000000
vt 1.250000 0.019531
vt 1.000000 1.000000
vt 1.000000 0.980469
vt 1.000000 0.000000
vt 1.000000 0.019531
vt 0.750000 1.000000
vt 0.750000 0.980469
vt 0.750000 0.000000
vt 0.750000 0.019531
vt 0.500000 1.000000
vt 0.500000 0.980469
vt 0.500000 0.000000
vt 0.500000 0.019531
vt 0.250000 1.000000
vt 0.250000 0.980469
vt 0.250000 0.000000
vt 0.250000 0.019531
vt 4.250000 1.000000
vt 4.250000 0.980469
vt 4.250000 0.812500
vt 0.000000 0.000000
vt 0.000000 0.019531
s 1
usemtl JOBJ_0_DOBJ_0_MOBJ_0
f 1/1/1 2/2/2 3/3/3
f 3/3/3 4/4/4 1/1/1
f 2/2/2 1/1/1 5/5/5
f 5/5/5 6/6/6 2/2/2
f 6/6/6 5/5/5 7/7/7
f 7/7/7 8/8/8 6/6/6
f 9/9/9 10/10/10 8/11/8
f 8/11/8 7/12/7 9/9/9
f 10/10/10 9/9/9 11/13/11
f 11/13/11 12/14/12 10/10/10
f 12/14/12 11/13/11 13/15/13
f 13/15/13 14/16/14 12/14/12
f 14/16/14 13/15/13 15/17/15
f 15/17/15 16/18/16 14/16/14
f 16/18/16 15/17/15 17/19/17
f 17/19/17 18/20/18 16/18/16
f 18/20/18 17/19/17 19/21/19
f 19/21/19 20/22/20 18/20/18
f 4/4/4 3/3/3 21/23/21
f 21/23/21 22/24/22 4/4/4
f 22/24/22 21/23/21 23/25/23
f 23/25/23 24/26/24 22/24/22
f 24/26/24 23/25/23 25/27/25
f 25/27/25 26/28/26 24/26/24
f 27/29/27 28/30/28 26/28/26
f 26/28/26 25/27/25 27/29/27
f 28/30/28 27/29/27 29/31/29
f 29/31/29 30/32/30 28/30/28
f 31/33/31 32/34/32 30/32/30
f 30/32/30 29/31/29 31/33/31
f 32/34/32 31/33/31 20/22/20
f 20/22/20 19/21/19 32/34/32
f 33/35/33 34/36/34 35/37/35
f 35/37/35 36/38/36 33/35/33
f 34/36/34 33/35/33 37/39/37
f 37/39/37 38/40/38 34/36/34
f 38/40/38 37/39/37 39/41/39
f 39/41/39 40/42/40 38/40/38
f 40/42/40 39/41/39 41/43/41
f 41/43/41 42/44/42 40/42/40
f 42/44/42 41/43/41 43/45/43
f 43/45/43 44/46/44 42/44/42
f 44/46/44 43/45/43 45/47/45
f 45/47/45 46/48/46 44/46/44
f 47/49/47 48/50/48 46/48/46
f 46/48/46 45/47/45 47/49/47
f 48/50/48 47/49/47 49/51/49
f 49/51/49 50/52/50 48/50/48
f 50/52/50 49/51/49 51/53/51
f 51/53/51 52/54/52 50/52/50
f 52/54/52 51/53/51 53/55/53
f 53/55/53 54/56/54 52/54/52
f 54/56/54 53/55/53 55/57/55
f 55/57/55 56/58/56 54/56/54
f 56/59/56 55/60/55 57/61/57
f 57/61/57 58/62/58 56/59/56
f 58/62/58 57/61/57 59/63/59
f 59/63/59 60/64/60 58/62/58
f 60/64/60 59/63/59 61/65/61
f 61/65/61 62/66/62 60/64/60
f 62/66/62 61/65/61 63/67/63
f 63/67/63 64/68/64 62/66/62
f 64/68/64 63/67/63 36/38/36
f 36/38/36 35/37/35 64/68/64
f 65/69/65 66/70/66 67/71/67
f 67/71/67 66/70/66 68/72/68
f 68/72/68 66/70/66 55/60/55
f 66/70/66 57/61/57 55/60/55
f 69/73/69 70/74/70 71/75/71
f 71/75/71 70/74/70 72/76/72
f 72/76/72 70/74/70 5/5/5
f 70/74/70 7/7/7 5/5/5
f 73/77/73 74/78/74 65/69/65
f 65/69/65 74/78/74 66/70/66
f 66/70/66 74/78/74 57/61/57
f 74/78/74 59/63/59 57/61/57
f 71/75/71 72/76/72 75/79/75
f 75/79/75 72/76/72 76/80/76
f 76/80/76 72/76/72 1/1/1
f 72/76/72 5/5/5 1/1/1
f 77/81/77 78/82/78 73/77/73
f 73/77/73 78/82/78 74/78/74
f 74/78/74 78/82/78 59/63/59
f 78/82/78 61/65/61 59/63/59
f 75/79/75 76/80/76 79/83/79
f 79/83/79 76/80/76 80/84/80
f 80/84/80 76/80/76 4/4/4
f 76/80/76 1/1/1 4/4/4
f 81/85/81 82/86/82 77/81/77
f 77/81/77 82/86/82 78/82/78
f 78/82/78 82/86/82 61/65/61
f 82/86/82 63/67/63 61/65/61
f 79/83/79 80/84/80 83/87/83
f 83/87/83 80/84/80 84/88/84
f 84/88/84 80/84/80 22/24/22
f 80/84/80 4/4/4 22/24/22
f 85/89/85 86/90/86 81/85/81
f 81/85/81 86/90/86 82/86/82
f 82/86/82 86/90/86 63/67/63
f 86/90/86 36/38/36 63/67/63
f 83/87/83 84/88/84 87/91/87
f 87/91/87 84/88/84 88/92/88
f 88/92/88 84/88/84 24/26/24
f 84/88/84 22/24/22 24/26/24
f 89/93/89 90/94/90 85/89/85
f 85/89/85 90/94/90 86/90/86
f 86/90/86 90/94/90 36/38/36
f 90/94/90 33/35/33 36/38/36
f 87/91/87 88/92/88 91/95/91
f 91/95/91 88/92/88 92/96/92
f 92/96/92 88/92/88 26/28/26
f 88/92/88 24/26/24 26/28/26
f 93/97/93 94/98/94 89/93/89
f 89/93/89 94/98/94 90/94/90
f 90/94/90 94/98/94 33/35/33
f 94/98/94 37/39/37 33/35/33
f 91/95/91 92/96/92 95/99/95
f 95/99/95 92/96/92 96/100/96
f 96/100/96 92/96/92 28/30/28
f 92/96/92 26/28/26 28/30/28
f 97/101/97 98/102/98 93/97/93
f 93/97/93 98/102/98 94/98/94
f 94/98/94 98/102/98 37/39/37
f 98/102/98 39/41/39 37/39/37
f 95/99/95 96/100/96 99/103/99
f 99/103/99 96/100/96 100/104/100
f 100/104/100 96/100/96 30/32/30
f 96/100/96 28/30/28 30/32/30
f 101/105/101 102/106/102 97/101/97
f 97/101/97 102/106/102 98/102/98
f 98/102/98 102/106/102 39/41/39
f 102/106/102 41/43/41 39/41/39
f 99/103/99 100/104/100 103/107/103
f 103/107/103 100/104/100 104/108/104
f 104/108/104 100/104/100 32/34/32
f 100/104/100 30/32/30 32/34/32
f 105/109/105 106/110/106 101/105/101
f 101/105/101 106/110/106 102/106/102
f 102/106/102 106/110/106 41/43/41
f 106/110/106 43/45/43 41/43/41
f 103/107/103 104/108/104 107/111/107
f 107/111/107 104/108/104 108/112/108
f 108/112/108 104/108/104 19/21/19
f 104/108/104 32/34/32 19/21/19
f 109/113/109 110/114/110 105/109/105
f 105/109/105 110/114/110 106/110/106
f 106/110/106 110/114/110 43/45/43
f 110/114/110 45/47/45 43/45/43
f 107/111/107 108/112/108 111/115/111
f 111/115/111 108/112/108 112/116/112
f 112/116/112 108/112/108 17/19/17
f 108/112/108 19/21/19 17/19/17
f 113/117/113 114/118/114 109/113/109
f 109/113/109 114/118/114 110/114/110
f 110/114/110 114/118/114 45/47/45
f 114/118/114 47/49/47 45/47/45
f 111/115/111 112/116/112 115/119/115
f 115/119/115 112/116/112 116/120/116
f 116/120/116 112/116/112 15/17/15
f 112/116/112 17/19/17 15/17/15
f 117/121/117 118/122/118 113/117/113
f 113/117/113 118/122/118 114/118/114
f 114/118/114 118/122/118 47/49/47
f 118/122/118 49/51/49 47/49/47
f 115/119/115 116/120/116 119/123/119
f 119/123/119 116/120/116 120/124/120
f 120/124/120 116/120/116 13/15/13
f 116/120/116 15/17/15 13/15/13
f 121/125/121 122/126/122 117/121/117
f 117/121/117 122/126/122 118/122/118
f 118/122/118 122/126/122 49/51/49
f 122/126/122 51/53/51 49/51/49
f 119/123/119 120/124/120 123/127/123
f 123/127/123 120/124/120 124/128/124
f 124/128/124 120/124/120 11/13/11
f 120/124/120 13/15/13 11/13/11
f 125/129/125 126/130/126 121/125/121
f 121/125/121 126/130/126 122/126/122
f 122/126/122 126/130/126 51/53/51
f 126/130/126 53/55/53 51/53/51
f 123/127/123 124/128/124 127/131/127
f 127/131/127 124/128/124 128/132/128
f 128/132/128 124/128/124 9/9/9
f 124/128/124 11/13/11 9/9/9
f 67/71/67 68/72/68 125/133/125
f 125/133/125 68/72/68 126/134/126
f 126/134/126 68/72/68 53/135/53
f 68/72/68 55/60/55 53/135/53
f 127/131/127 128/132/128 69/136/69
f 69/136/69 128/132/128 70/137/70
f 70/137/70 128/132/128 7/12/7
f 128/132/128 9/9/9 7/12/7
f 8/11/8 10/10/10 56/58/56
f 56/58/56 10/10/10 54/56/54
f 10/10/10 12/14/12 54/56/54
f 54/56/54 12/14/12 52/54/52
f 12/14/12 14/16/14 52/54/52
f 52/54/52 14/16/14 50/52/50
f 14/16/14 16/18/16 50/52/50
f 50/52/50 16/18/16 48/50/48
f 16/18/16 18/20/18 48/50/48
f 48/50/48 18/20/18 46/48/46
f 18/20/18 20/22/20 46/48/46
f 46/48/46 20/22/20 44/46/44
f 20/22/20 31/33/31 44/46/44
f 44/46/44 31/33/31 42/44/42
f 31/33/31 29/31/29 42/44/42
f 42/44/42 29/31/29 40/42/40
f 29/31/29 27/29/27 40/42/40
f 40/42/40 27/29/27 38/40/38
f 27/29/27 25/27/25 38/40/38
f 38/40/38 25/27/25 34/36/34
f 25/27/25 23/25/23 34/36/34
f 34/36/34 23/25/23 35/37/35
f 23/25/23 21/23/21 35/37/35
f 35/37/35 21/23/21 64/68/64
f 21/23/21 3/3/3 64/68/64
f 64/68/64 3/3/3 62/66/62
f 3/3/3 2/2/2 62/66/62
f 62/66/62 2/2/2 60/64/60
f 2/2/2 6/6/6 60/64/60
f 60/64/60 6/6/6 58/62/58
f 6/6/6 8/8/8 58/62/58
f 58/62/58 8/8/8 56/59/56
o JOBJ_0_DOBJ_1_POBJ_02
v -6.347656 9.539062 -0.675782
v -5.785156 8.683594 -0.695313
v 1.046875 13.292969 -5.757813
v 0.484375 14.148438 -5.738282
v -6.691406 10.437500 -0.324220
v 0.140625 15.042969 -5.386720
v -6.765625 11.238281 0.304687
v 0.066406 15.843750 -4.757813
v -6.558594 11.824219 1.117187
v 0.273438 16.429688 -3.945313
v -6.101562 12.101563 1.988280
v 0.730469 16.710938 -3.074220
v -5.464844 12.035156 2.785155
v 1.367188 16.640625 -2.277345
v -4.746094 11.628906 3.386718
v 2.085938 16.234375 -1.675782
v -4.050781 10.945313 3.703124
v 2.781250 15.554688 -1.359376
v -3.488281 10.093750 3.683593
v 3.343750 14.699219 -1.378907
v -3.144531 9.195312 3.332030
v 3.687500 13.804688 -1.730470
v -3.070312 8.394531 2.699218
v 3.761719 13.000000 -2.359376
v -3.277344 7.808594 1.890624
v 3.554688 12.417969 -3.171876
v -3.734375 7.527344 1.019530
v 3.097656 12.136719 -4.042970
v -4.371094 7.597656 0.218749
v 2.460938 12.203125 -4.839845
v -5.089844 8.003906 -0.382813
v 1.742188 12.609375 -5.441407
vn -0.9283 0.1628 0.3344
vn -0.9468 -0.1583 0.2801
vn -0.8184 0.0714 0.5703
vn -0.7041 -0.0510 0.7083
vn -0.9427 -0.2907 0.1637
vn -0.5796 -0.1289 0.8046
vn -0.8901 -0.4455 0.0962
vn -0.4619 -0.2530 0.8501
vn -0.7971 -0.5983 0.0823
vn -0.3699 -0.4040 0.8366
vn -0.6796 -0.7227 0.1261
vn -0.3180 -0.5577 0.7667
vn -0.5576 -0.7993 0.2243
vn -0.3150 -0.6897 0.6520
vn -0.3696 -0.8759 0.3101
vn -0.1297 -0.8818 0.4535
vn 0.1042 0.8428 -0.5280
vn 0.4117 0.8141 -0.4096
vn 0.2072 0.6697 -0.7132
vn 0.3297 0.5066 -0.7966
vn 0.5179 0.8125 -0.2677
vn 0.3978 0.3511 -0.8476
vn 0.6394 0.7520 -0.1602
vn 0.4988 0.2066 -0.8417
vn 0.7602 0.6430 -0.0932
vn 0.6210 0.0959 -0.7779
vn 0.8630 0.4984 -0.0826
vn 0.7447 0.0352 -0.6665
vn 0.9303 0.3417 -0.1333
vn 0.8502 0.0321 -0.5255
vn 0.9779 0.1295 -0.1641
vn 0.9573 -0.1300 -0.2582
vt 0.500000 0.976562
vt 0.683594 0.937500
vt 0.316406 0.937500
vt 0.164062 0.835938
vt 0.835938 0.835938
vt 0.062500 0.683594
vt 0.937500 0.683594
vt 0.023438 0.500000
vt 0.976562 0.500000
vt 0.062500 0.316406
vt 0.937500 0.316406
vt 0.164062 0.164062
vt 0.835938 0.164062
vt 0.316406 0.062500
vt 0.683594 0.062500
vt 0.500000 0.023438
s 1
usemtl JOBJ_0_DOBJ_1_MOBJ_1
f 137/138/129 135/139/130 139/140/131
f 139/140/131 135/139/130 141/141/132
f 135/139/130 133/142/133 141/141/132
f 141/141/132 133/142/133 143/143/134
f 133/142/133 129/144/135 143/143/134
f 143/143/134 129/144/135 145/145/136
f 129/144/135 130/146/137 145/145/136
f 145/145/136 130/146/137 147/147/138
f 130/146/137 159/148/139 147/147/138
f 147/147/138 159/148/139 149/149/140
f 159/148/139 157/150/141 149/149/140
f 149/149/140 157/150/141 151/151/142
f 157/150/141 155/152/143 151/151/142
f 151/151/142 155/152/143 153/153/144
f 138/138/145 140/140/146 136/139/147
f 136/139/147 140/140/146 134/142/148
f 140/140/146 142/141/149 134/142/148
f 134/142/148 142/141/149 132/144/150
f 142/141/149 144/143/151 132/144/150
f 132/144/150 144/143/151 131/146/152
f 144/143/151 146/145/153 131/146/152
f 131/146/152 146/145/153 160/148/154
f 146/145/153 148/147/155 160/148/154
f 160/148/154 148/147/155 158/150/156
f 148/147/155 150/149/157 158/150/156
f 158/150/156 150/149/157 156/152/158
f 150/149/157 152/151/159 156/152/158
f 156/152/158 152/151/159 154/153/160
o JOBJ_0_DOBJ_2_POBJ_02
v 0.726562 8.539062 -0.437501
v 1.789062 6.984375 -0.171876
v 2.058594 7.335938 0.515624
v 5.617188 2.976562 1.351562
v 5.347656 2.625000 0.667969
v 2.593750 7.527344 -0.769532
v 6.156250 3.171875 0.070312
v 2.867188 7.878906 -0.082032
v 6.425781 3.523438 0.753906
v 0.933594 8.808594 0.089843
v -3.773438 14.046875 -1.500001
v -3.152344 14.468750 -1.957032
v 1.347656 8.957031 -0.898439
v 1.554688 9.230469 -0.371095
v -3.566406 14.320313 -0.972657
v -2.945312 14.738281 -1.429689
vn -0.7349 -0.4420 0.5143
vn -0.7211 -0.4594 0.5186
vn -0.7349 -0.4421 0.5143
vn -0.7070 -0.4767 0.5224
vn -0.7067 -0.4760 0.5234
vn -0.3525 -0.4058 -0.8432
vn -0.3413 -0.4187 -0.8415
vn -0.3302 -0.4316 -0.8394
vn -0.3292 -0.4313 -0.8400
vn 0.6764 0.5110 -0.5305
vn 0.6915 0.4939 -0.5272
vn 0.7060 0.4764 -0.5240
vn 0.7063 0.4766 -0.5235
vn 0.3303 0.4308 0.8398
vn 0.3098 0.4563 0.8342
vn 0.3201 0.4437 0.8371
vn 0.3096 0.4563 0.8342
vn -0.7210 -0.4592 0.5189
vn -0.7068 -0.4765 0.5228
vn -0.3273 -0.4298 -0.8415
vn -0.3295 -0.4308 -0.8401
vn -0.3408 -0.4182 -0.8420
vn -0.3526 -0.4058 -0.8432
vn 0.6918 0.4941 -0.5266
vn 0.6764 0.5110 -0.5304
vn 0.3195 0.4434 0.8375
vn 0.3295 0.4308 0.8401
vn -0.7064 -0.4757 0.5240
vn -0.6284 0.7635 -0.1492
vn -0.6264 0.7653 -0.1481
vn -0.6244 0.7672 -0.1470
vn 0.7072 0.4772 -0.5216
vn 0.7066 0.4767 -0.5229
vn 0.3290 0.4303 0.8406
vn 0.6263 -0.7656 0.1468
vn 0.3299 0.4304 0.8402
vt 0.117188 0.511719
vt 0.000000 0.386719
vt 0.000000 0.000000
vt 1.000000 0.386719
vt 1.000000 0.000000
vt 0.117188 1.000000
vt 0.882812 1.000000
vt 0.882812 0.511719
s 1
usemtl JOBJ_0_DOBJ_2_MOBJ_2
f 161/154/161 162/155/162 163/155/163
f 163/155/163 162/155/162 164/156/164
f 164/156/164 162/155/162 165/156/165
f 162/155/166 166/157/167 165/156/168
f 165/156/168 166/157/167 167/158/169
f 166/157/170 168/157/171 167/158/172
f 167/158/172 168/157/171 169/158/173
f 169/158/174 168/157/175 163/155/176
f 168/157/175 170/154/177 163/155/176
f 163/155/163 170/154/178 161/154/161
f 170/154/178 171/159/179 161/154/161
f 171/159/180 172/160/181 161/154/182
f 172/160/181 173/161/183 161/154/182
f 161/154/182 173/161/183 162/155/166
f 162/155/166 173/161/183 166/157/167
f 173/161/184 174/161/185 166/157/170
f 166/157/170 174/161/185 168/157/171
f 168/157/175 174/161/186 170/154/177
f 174/161/186 175/159/187 170/154/177
f 170/154/178 175/159/188 171/159/179
f 171/159/189 175/159/190 172/160/190
f 175/159/190 176/160/191 172/160/190
f 172/160/192 176/160/193 173/161/184
f 173/161/184 176/160/193 174/161/185
f 176/160/194 175/159/187 174/161/186
f 167/158/195 169/158/195 165/156/195
f 165/156/195 169/158/195 164/156/195
f 169/158/174 163/155/176 164/156/196
